<?xml version="1.0" encoding="UTF-8" standalone="no"?>
<!DOCTYPE svg PUBLIC "-//W3C//DTD SVG 1.1//EN" "http://www.w3.org/Graphics/SVG/1.1/DTD/svg11.dtd">
<svg xmlns="http://www.w3.org/2000/svg" version="1.1" viewBox="0.00 0.00 1211.00 1211.00">
<g stroke-width="2.00" fill="none" stroke-linecap="butt">
<path stroke="#f10000" vector-effect="non-scaling-stroke" d="
  M 1120.83 447.17
  Q 1120.29 447.59 1120.13 447.36
  C 1117.64 443.86 1114.08 441.08 1112.01 437.89
  Q 1108.22 432.06 1106.14 425.37
  C 1105.29 422.64 1103.63 420.55 1102.63 417.83
  Q 1097.92 405.05 1091.92 392.82
  Q 1091.22 391.39 1091.37 389.24
  Q 1091.40 388.74 1090.97 388.48
  C 1088.83 387.19 1089.86 385.77 1088.62 384.48
  Q 1088.28 384.13 1088.09 383.67
  C 1083.26 372.25 1077.09 362.35 1070.78 351.77
  C 1062.54 337.95 1056.10 328.93 1049.27 319.28
  C 1041.69 308.57 1032.88 298.57 1024.60 288.40
  C 1023.34 286.85 1021.16 285.96 1020.15 283.88
  C 1017.78 279.02 1012.58 274.51 1008.97 270.43
  C 1001.86 262.42 994.20 254.96 986.84 247.17
  Q 978.28 238.12 956.49 219.75
  C 951.54 215.58 945.15 211.30 939.70 206.77
  Q 931.21 199.72 927.25 196.88
  C 910.06 184.56 894.61 173.96 876.47 163.99
  C 874.16 162.72 871.74 160.73 869.05 159.43
  C 857.91 154.09 847.64 147.89 840.55 144.72
  C 827.18 138.73 814.72 132.69 800.14 127.54
  C 798.85 127.09 797.57 127.52 796.46 127.03
  Q 787.51 123.11 781.81 121.19
  Q 738.41 106.61 693.24 99.30
  C 684.47 97.88 675.19 97.47 666.08 96.73
  C 656.16 95.94 646.52 92.39 636.00 92.16
  C 627.67 91.98 619.70 90.92 613.25 91.49
  C 596.93 92.91 578.53 93.03 556.59 94.77
  C 554.19 94.96 551.90 95.69 549.47 95.87
  C 510.77 98.59 476.65 106.83 438.05 118.06
  C 432.27 119.74 425.00 120.56 418.57 122.79
  Q 416.28 123.58 415.58 126.91"
/>
<path stroke="#f10000" vector-effect="non-scaling-stroke" d="
  M 800.90 1054.26
  Q 802.40 1053.37 802.58 1052.56
  Q 804.91 1041.85 810.96 1032.20
  Q 821.72 1015.03 834.70 992.93
  Q 835.67 991.28 833.40 988.13"
/>
<path stroke="#f10000" vector-effect="non-scaling-stroke" d="
  M 382.33 125.49
  L 377.82 126.93
  A 0.14 0.14 0.0 0 0 377.80 127.18
  Q 377.95 127.26 378.13 127.26
  Q 378.71 127.24 378.32 127.68
  C 376.42 129.85 372.06 129.00 369.54 129.23
  C 363.13 129.81 356.97 128.88 350.68 127.73
  Q 350.50 127.70 350.50 127.51
  Q 350.50 127.36 350.50 127.22
  A 0.29 0.29 0.0 0 0 350.24 126.93
  C 335.85 125.35 323.54 123.16 310.53 121.34
  C 294.48 119.10 278.34 119.98 264.05 128.29
  Q 262.96 128.92 261.66 131.63
  Q 261.46 132.06 261.74 132.44
  Q 262.60 133.62 262.01 133.79"
/>
<path stroke="#f10000" vector-effect="non-scaling-stroke" d="
  M 725.20 700.77
  Q 724.88 699.98 724.35 699.83
  Q 723.83 699.67 723.65 700.18
  L 723.47 700.70"
/>
</g>
<path fill="#e20000" d="
  M 1120.83 447.17
  Q 1120.29 447.59 1120.13 447.36
  C 1117.64 443.86 1114.08 441.08 1112.01 437.89
  Q 1108.22 432.06 1106.14 425.37
  C 1105.29 422.64 1103.63 420.55 1102.63 417.83
  Q 1097.92 405.05 1091.92 392.82
  Q 1091.22 391.39 1091.37 389.24
  Q 1091.40 388.74 1090.97 388.48
  C 1088.83 387.19 1089.86 385.77 1088.62 384.48
  Q 1088.28 384.13 1088.09 383.67
  C 1083.26 372.25 1077.09 362.35 1070.78 351.77
  C 1062.54 337.95 1056.10 328.93 1049.27 319.28
  C 1041.69 308.57 1032.88 298.57 1024.60 288.40
  C 1023.34 286.85 1021.16 285.96 1020.15 283.88
  C 1017.78 279.02 1012.58 274.51 1008.97 270.43
  C 1001.86 262.42 994.20 254.96 986.84 247.17
  Q 978.28 238.12 956.49 219.75
  C 951.54 215.58 945.15 211.30 939.70 206.77
  Q 931.21 199.72 927.25 196.88
  C 910.06 184.56 894.61 173.96 876.47 163.99
  C 874.16 162.72 871.74 160.73 869.05 159.43
  C 857.91 154.09 847.64 147.89 840.55 144.72
  C 827.18 138.73 814.72 132.69 800.14 127.54
  C 798.85 127.09 797.57 127.52 796.46 127.03
  Q 787.51 123.11 781.81 121.19
  Q 738.41 106.61 693.24 99.30
  C 684.47 97.88 675.19 97.47 666.08 96.73
  C 656.16 95.94 646.52 92.39 636.00 92.16
  C 627.67 91.98 619.70 90.92 613.25 91.49
  C 596.93 92.91 578.53 93.03 556.59 94.77
  C 554.19 94.96 551.90 95.69 549.47 95.87
  C 510.77 98.59 476.65 106.83 438.05 118.06
  C 432.27 119.74 425.00 120.56 418.57 122.79
  Q 416.28 123.58 415.58 126.91
  L 386.03 116.21
  A 0.63 0.63 0.0 0 1 385.99 115.04
  C 440.87 90.61 499.63 74.94 559.31 70.19
  C 560.27 70.12 561.48 69.56 562.25 69.53
  Q 581.38 68.85 600.51 68.42
  C 614.32 68.12 628.36 68.80 642.29 69.25
  C 651.79 69.55 662.20 70.78 670.49 71.80
  C 881.35 97.74 1057.04 244.63 1120.83 447.17
  Z"
/>
<path fill="#e20000" d="
  M 382.33 125.49
  L 377.82 126.93
  A 0.14 0.14 0.0 0 0 377.80 127.18
  Q 377.95 127.26 378.13 127.26
  Q 378.71 127.24 378.32 127.68
  C 376.42 129.85 372.06 129.00 369.54 129.23
  C 363.13 129.81 356.97 128.88 350.68 127.73
  Q 350.50 127.70 350.50 127.51
  Q 350.50 127.36 350.50 127.22
  A 0.29 0.29 0.0 0 0 350.24 126.93
  C 335.85 125.35 323.54 123.16 310.53 121.34
  C 294.48 119.10 278.34 119.98 264.05 128.29
  Q 262.96 128.92 261.66 131.63
  Q 261.46 132.06 261.74 132.44
  Q 262.60 133.62 262.01 133.79
  L 225.92 70.34
  A 0.48 0.48 0.0 0 1 226.50 69.65
  L 382.33 125.49
  Z"
/>
<path fill="#ff0000" d="
  M 1120.83 447.17
  C 1133.15 487.96 1141.32 529.30 1143.81 571.69
  C 1144.85 589.51 1145.25 607.04 1144.91 624.93
  C 1144.72 635.27 1143.09 648.17 1142.93 659.90
  Q 1142.93 660.38 1142.60 660.73
  Q 1142.32 661.04 1142.25 661.50
  Q 1141.03 669.65 1140.95 677.90
  Q 1140.94 678.39 1140.61 678.75
  Q 1140.46 678.91 1140.34 679.08
  Q 1140.23 679.23 1140.19 679.44
  Q 1139.05 685.11 1138.95 690.90
  Q 1138.94 691.39 1138.61 691.74
  C 1138.35 692.02 1138.15 692.29 1138.10 692.69
  Q 1137.68 696.11 1137.12 699.50
  C 1136.97 700.43 1137.27 702.46 1136.67 703.74
  Q 1136.17 704.82 1136.07 705.36
  Q 1128.74 744.32 1117.01 779.00
  C 1072.65 910.14 979.32 1019.46 856.80 1084.30
  Q 841.36 1092.47 824.53 1099.56
  A 1.98 1.97 -24.1 0 1 821.98 1098.59
  L 800.90 1054.26
  Q 802.40 1053.37 802.58 1052.56
  Q 804.91 1041.85 810.96 1032.20
  Q 821.72 1015.03 834.70 992.93
  Q 835.67 991.28 833.40 988.13
  C 945.67 920.12 1021.78 810.07 1043.52 680.25
  C 1045.70 667.24 1047.01 654.36 1048.18 641.17
  C 1049.84 622.58 1049.00 603.43 1049.02 584.75
  Q 1049.03 576.19 1045.83 548.76
  Q 1045.78 548.27 1045.49 547.87
  Q 1045.34 547.64 1045.20 547.42
  Q 1045.06 547.20 1045.06 546.94
  Q 1044.99 540.78 1043.66 534.81
  C 1042.85 531.17 1042.71 527.18 1041.66 523.42
  C 1040.85 520.53 1040.84 517.47 1039.93 514.54
  C 1039.01 511.51 1038.76 509.12 1038.24 506.24
  Q 1038.08 505.35 1037.42 504.78
  Q 1037.04 504.45 1037.04 503.96
  Q 1037.00 500.76 1035.95 497.79
  C 1035.63 496.89 1034.81 496.37 1034.91 494.96
  Q 1034.97 494.01 1034.84 493.51
  C 977.14 275.96 763.86 134.02 540.23 169.38
  C 538.86 169.59 537.00 169.45 535.69 169.00
  C 495.60 155.22 455.32 141.68 415.58 126.91
  Q 416.28 123.58 418.57 122.79
  C 425.00 120.56 432.27 119.74 438.05 118.06
  C 476.65 106.83 510.77 98.59 549.47 95.87
  C 551.90 95.69 554.19 94.96 556.59 94.77
  C 578.53 93.03 596.93 92.91 613.25 91.49
  C 619.70 90.92 627.67 91.98 636.00 92.16
  C 646.52 92.39 656.16 95.94 666.08 96.73
  C 675.19 97.47 684.47 97.88 693.24 99.30
  Q 738.41 106.61 781.81 121.19
  Q 787.51 123.11 796.46 127.03
  C 797.57 127.52 798.85 127.09 800.14 127.54
  C 814.72 132.69 827.18 138.73 840.55 144.72
  C 847.64 147.89 857.91 154.09 869.05 159.43
  C 871.74 160.73 874.16 162.72 876.47 163.99
  C 894.61 173.96 910.06 184.56 927.25 196.88
  Q 931.21 199.72 939.70 206.77
  C 945.15 211.30 951.54 215.58 956.49 219.75
  Q 978.28 238.12 986.84 247.17
  C 994.20 254.96 1001.86 262.42 1008.97 270.43
  C 1012.58 274.51 1017.78 279.02 1020.15 283.88
  C 1021.16 285.96 1023.34 286.85 1024.60 288.40
  C 1032.88 298.57 1041.69 308.57 1049.27 319.28
  C 1056.10 328.93 1062.54 337.95 1070.78 351.77
  C 1077.09 362.35 1083.26 372.25 1088.09 383.67
  Q 1088.28 384.13 1088.62 384.48
  C 1089.86 385.77 1088.83 387.19 1090.97 388.48
  Q 1091.40 388.74 1091.37 389.24
  Q 1091.22 391.39 1091.92 392.82
  Q 1097.92 405.05 1102.63 417.83
  C 1103.63 420.55 1105.29 422.64 1106.14 425.37
  Q 1108.22 432.06 1112.01 437.89
  C 1114.08 441.08 1117.64 443.86 1120.13 447.36
  Q 1120.29 447.59 1120.83 447.17
  Z"
/>
<path fill="#ff0000" d="
  M 382.33 125.49
  L 416.38 137.41
  A 2.78 2.76 85.7 0 1 417.93 138.75
  L 495.18 288.38
  Q 495.77 289.51 494.50 289.42
  Q 493.68 289.35 492.26 288.97
  Q 408.99 266.81 325.74 244.81
  A 1.97 1.97 0.0 0 1 324.53 243.88
  L 262.01 133.79
  Q 262.60 133.62 261.74 132.44
  Q 261.46 132.06 261.66 131.63
  Q 262.96 128.92 264.05 128.29
  C 278.34 119.98 294.48 119.10 310.53 121.34
  C 323.54 123.16 335.85 125.35 350.24 126.93
  A 0.29 0.29 0.0 0 1 350.50 127.22
  Q 350.50 127.36 350.50 127.51
  Q 350.50 127.70 350.68 127.73
  C 356.97 128.88 363.13 129.81 369.54 129.23
  C 372.06 129.00 376.42 129.85 378.32 127.68
  Q 378.71 127.24 378.13 127.26
  Q 377.95 127.26 377.80 127.18
  A 0.14 0.14 0.0 0 1 377.82 126.93
  L 382.33 125.49
  Z"
/>
<path fill="#ff0000" d="
  M 725.20 700.77
  Q 724.88 699.98 724.35 699.83
  Q 723.83 699.67 723.65 700.18
  L 723.47 700.70
  Q 722.56 701.53 722.31 702.06
  Q 716.78 713.93 699.47 749.74
  C 660.29 830.81 621.29 911.97 582.02 993.01
  A 2.68 2.67 4.5 0 1 580.40 994.39
  L 441.25 1036.79
  A 0.52 0.52 0.0 0 1 440.63 1036.51
  C 440.22 1035.59 440.76 1034.91 441.17 1034.13
  Q 555.90 816.41 670.76 598.76
  C 672.09 596.25 670.05 592.80 668.90 590.55
  C 664.54 581.99 659.44 572.67 655.51 565.04
  Q 548.03 356.26 440.59 147.46
  Q 439.70 145.74 438.93 143.87
  A 0.84 0.83 88.3 0 1 439.97 142.76
  L 580.85 191.51
  A 1.30 1.27 -2.5 0 1 581.62 192.20
  L 723.53 494.75
  Q 724.08 495.94 725.40 495.11
  Q 725.72 494.91 726.22 493.95
  Q 781.72 388.04 837.54 282.63
  A 2.65 2.64 23.5 0 1 840.75 281.37
  L 911.73 306.04
  A 1.07 1.06 -67.6 0 1 912.34 307.51
  Q 844.11 448.84 776.08 590.49
  C 773.24 596.41 771.67 597.62 774.28 603.22
  C 819.21 699.76 864.62 796.05 909.90 892.31
  A 1.44 1.44 0.0 0 1 909.02 894.30
  Q 874.36 905.12 839.92 915.37
  Q 838.45 915.80 836.89 915.76
  Q 836.43 915.75 836.35 915.30
  C 836.03 913.62 834.90 912.24 834.30 911.07
  Q 780.34 806.69 726.49 702.25
  Q 726.30 701.87 725.20 700.77
  Z"
/>
<path fill="#ff0000" d="
  M 224.86 226.60
  Q 242.36 208.94 261.25 192.75
  Q 268.45 186.58 275.87 181.07
  A 0.63 0.63 0.0 0 1 276.78 181.26
  L 318.60 254.13
  A 1.29 1.25 82.4 0 0 319.35 254.72
  L 329.01 257.49
  A 0.70 0.70 0.0 0 1 329.28 258.68
  Q 324.71 262.72 319.85 266.86
  Q 299.12 284.50 281.44 305.12
  C 273.19 314.75 264.67 326.59 256.50 337.48
  Q 200.91 411.58 176.73 501.11
  Q 172.87 515.39 172.01 520.00
  Q 170.96 525.68 169.91 529.03
  C 169.59 530.05 170.18 530.40 169.90 531.31
  Q 168.90 534.53 168.97 537.90
  A 1.08 1.06 67.3 0 1 168.66 538.68
  Q 168.21 539.15 168.12 539.82
  Q 167.66 543.17 167.13 546.50
  C 166.99 547.37 167.23 549.43 166.66 550.74
  Q 166.22 551.75 166.15 552.36
  Q 164.93 563.10 163.94 573.85
  C 162.15 593.17 162.91 613.15 163.06 632.56
  C 163.11 640.04 164.33 647.80 164.79 654.83
  Q 165.27 662.14 166.46 669.38
  C 167.09 673.18 167.12 677.74 168.07 681.91
  Q 168.81 685.14 169.19 688.70
  C 169.55 692.15 170.71 695.97 171.23 698.77
  Q 191.17 806.37 257.48 893.24
  C 270.58 910.41 289.36 930.91 309.24 944.40
  A 1.55 1.54 -57.9 0 1 309.71 946.47
  L 264.41 1023.33
  A 0.47 0.46 -54.5 0 1 263.72 1023.45
  C 175.54 950.15 111.75 851.74 83.84 740.62
  Q 83.72 740.13 83.40 739.75
  Q 83.26 739.57 83.14 739.37
  Q 83.05 739.21 83.03 739.00
  C 82.70 735.33 81.29 732.13 80.83 728.54
  C 80.44 725.52 79.22 722.43 78.82 719.78
  Q 78.26 716.00 77.96 714.76
  Q 75.41 703.93 73.92 692.91
  C 73.83 692.25 73.67 692.12 73.32 691.59
  Q 73.05 691.18 73.04 690.69
  Q 72.99 685.01 71.83 679.43
  Q 71.77 679.12 71.43 678.80
  Q 71.06 678.46 71.06 677.95
  Q 70.93 669.69 69.81 661.49
  Q 69.75 661.10 69.49 660.85
  Q 69.15 660.52 69.13 660.05
  Q 68.71 648.35 67.79 636.69
  Q 67.75 636.13 67.42 635.74
  Q 67.11 635.38 67.11 634.91
  C 66.73 598.87 66.95 578.24 70.19 547.44
  C 72.51 525.40 76.84 501.12 81.50 482.25
  Q 117.98 334.45 224.86 226.60
  Z"
/>
<path fill="#ff0000" d="
  M 822.68 275.32
  A 0.72 0.72 0.0 0 1 823.11 276.27
  Q 822.12 278.67 820.74 281.21
  Q 772.12 370.44 722.99 459.92
  Q 722.62 460.61 722.24 459.92
  Q 721.26 458.16 720.26 455.97
  Q 662.10 328.82 604.14 201.58
  Q 603.49 200.15 605.05 200.02
  A 0.90 0.90 0.0 0 1 605.40 200.07
  Q 713.92 238.04 822.68 275.32
  Z"
/>
<path fill="#ff0000" d="
  M 255.88 1055.65
  C 282.57 1009.82 310.02 964.47 337.05 918.85
  Q 467.44 698.77 597.78 478.27
  Q 598.22 477.53 598.92 478.02
  Q 599.03 478.10 599.31 478.63
  Q 628.73 533.29 657.85 587.82
  A 1.95 1.93 -45.3 0 1 657.85 589.65
  C 576.96 741.03 495.97 892.37 415.00 1043.72
  Q 414.35 1044.93 411.52 1045.80
  Q 320.93 1073.58 230.52 1100.22
  Q 229.72 1100.45 230.14 1099.73
  Q 243.19 1077.44 255.88 1055.65
  Z"
/>
<path fill="#e20000" d="
  M 725.20 700.77
  L 723.47 700.70
  L 723.65 700.18
  Q 723.83 699.67 724.35 699.83
  Q 724.88 699.98 725.20 700.77
  Z"
/>
<path fill="#e20000" d="
  M 833.40 988.13
  Q 835.67 991.28 834.70 992.93
  Q 821.72 1015.03 810.96 1032.20
  Q 804.91 1041.85 802.58 1052.56
  Q 802.40 1053.37 800.90 1054.26
  L 782.60 1015.55
  A 0.97 0.96 65.4 0 1 783.08 1014.25
  Q 809.42 1002.60 833.40 988.13
  Z"
/>
<path fill="#ff0000" d="
  M 344.62 1078.42
  Q 343.99 1078.04 343.68 1077.49
  A 0.53 0.52 66.8 0 1 343.98 1076.73
  Q 375.63 1067.09 407.18 1057.26
  Q 408.37 1056.89 408.80 1057.45
  A 1.89 0.89 47.0 0 1 409.31 1059.03
  L 389.78 1099.30
  Q 389.58 1099.72 389.11 1099.74
  C 386.19 1099.86 384.50 1098.39 382.37 1097.50
  Q 362.82 1089.30 344.62 1078.42
  Z"
/>
</svg>
